<?xml version="1.0" encoding="utf-8"?>
<!-- Generator: Adobe Illustrator 19.2.1, SVG Export Plug-In . SVG Version: 6.00 Build 0)  -->
<svg version="1.1" id="layer" xmlns="http://www.w3.org/2000/svg" xmlns:xlink="http://www.w3.org/1999/xlink" x="0px" y="0px"
	 viewBox="0 0 652 652" style="enable-background:new 0 0 652 652;" xml:space="preserve">
<style type="text/css">
	.st0{fill:#2765B2;}
	.st1{fill:#F9E419;}
</style>
<g id="g10" transform="matrix(1.25,0,0,-1.25,0,336.6125)">
	<g id="g12" transform="scale(0.1,0.1)">
		<path id="path14" class="st0" d="M2134.4-357.1h-318.7v483.8h318.7V69.5H1880V-63h254.4v-57.2H1880v-179.7h254.4V-357.1"/>
		<path id="path16" class="st0" d="M2433-60.8h-3.2c-9.1,2.2-17.9,3.7-26.5,4.7c-8.6,1-18.7,1.5-30.4,1.5c-18.8,0-37-4.2-54.6-12.5
			c-17.6-8.3-34.4-19.1-50.7-32.3v-257.6h-61.1V5.9h61.1v-53.6c24.3,19.5,45.6,33.3,64.2,41.4c18.5,8.1,37.4,12.2,56.7,12.2
			c10.6,0,18.3-0.3,23.1-0.8c4.8-0.5,11.9-1.6,21.4-3.1L2433-60.8"/>
		<path id="path18" class="st0" d="M2700.7-267.7v101c-18.6-1.1-40.6-2.7-65.8-4.9c-25.2-2.2-45.2-5.3-59.9-9.4
			c-17.5-5-31.7-12.7-42.6-23.2c-10.8-10.5-16.2-25-16.2-43.4c0-20.8,6.3-36.4,18.8-46.9c12.6-10.5,31.7-15.8,57.5-15.8
			c21.4,0,41,4.2,58.8,12.5C2669.1-289.4,2685.6-279.4,2700.7-267.7z M2761.5-357.1h-60.8v38.7c-5.4-3.7-12.7-8.8-21.9-15.4
			c-9.2-6.6-18.1-11.9-26.8-15.8c-10.2-5-21.9-9.1-35.1-12.5c-13.2-3.4-28.7-5-46.5-5c-32.7,0-60.4,10.8-83.2,32.5
			c-22.7,21.7-34.1,49.3-34.1,82.9c0,27.5,5.9,49.8,17.7,66.8c11.8,17,28.6,30.4,50.5,40.1c22.1,9.8,48.6,16.4,79.6,19.8
			c31,3.5,64.2,6.1,99.7,7.8v9.4c0,13.9-2.4,25.3-7.3,34.4c-4.9,9.1-11.9,16.2-21,21.4c-8.7,5-19.1,8.3-31.2,10.1
			c-12.1,1.7-24.8,2.6-38,2.6c-16,0-33.9-2.1-53.6-6.3c-19.7-4.2-40.1-10.3-61.1-18.4h-3.3v62.1c11.9,3.2,29.1,6.8,51.7,10.7
			c22.5,3.9,44.7,5.8,66.6,5.8c25.6,0,47.8-2.1,66.8-6.3s35.4-11.4,49.2-21.6c13.7-10,24-22.9,31.2-38.7
			c7.1-15.8,10.7-35.4,10.7-58.8L2761.5-357.1"/>
		<path id="path20" class="st0" d="M3115.2-252.4c0-33.1-13.7-60.3-41.1-81.6c-27.4-21.2-64.8-31.8-112.3-31.8
			c-26.9,0-51.5,3.2-73.9,9.6c-22.4,6.4-41.2,13.4-56.4,21v68.6h3.2c19.3-14.5,40.7-26,64.3-34.6c23.6-8.6,46.2-12.8,67.9-12.8
			c26.9,0,47.9,4.3,63,13c15.2,8.7,22.8,22.3,22.8,40.9c0,14.3-4.1,25.1-12.3,32.5c-8.2,7.4-24,13.6-47.4,18.8
			c-8.7,1.9-20,4.2-34,6.8c-14,2.6-26.7,5.4-38.2,8.4c-31.8,8.5-54.4,20.8-67.7,37.2s-20,36.4-20,60.3c0,14.9,3.1,29,9.3,42.2
			c6.2,13.2,15.5,25,28.1,35.4c12.1,10.2,27.6,18.3,46.3,24.2c18.7,6,39.7,8.9,62.9,8.9c21.7,0,43.6-2.7,65.8-8
			c22.2-5.3,40.7-11.8,55.4-19.3V-78h-3.2c-15.6,11.5-34.6,21.2-56.9,29.1c-22.3,7.9-44.2,11.9-65.6,11.9
			c-22.3,0-41.2-4.3-56.5-12.8c-15.4-8.6-23.1-21.3-23.1-38.2c0-14.9,4.7-26.2,14-33.8c9.1-7.6,23.8-13.8,44.2-18.5
			c11.3-2.6,23.9-5.2,37.8-7.8c14-2.6,25.6-5,34.9-7.1c28.4-6.5,50.2-17.7,65.6-33.5C3107.6-204.8,3115.2-226,3115.2-252.4"/>
		<path id="path22" class="st0" d="M3709.7-357.1h-61.1v206.6c0,15.6-0.7,30.7-2.1,45.2c-1.4,14.5-4.4,26.1-8.9,34.8
			c-5,9.3-12.1,16.3-21.4,21.1c-9.3,4.8-22.7,7.1-40.3,7.1c-17.1,0-34.2-4.3-51.3-12.8c-17.1-8.6-34.2-19.4-51.3-32.7
			c0.6-5,1.2-10.8,1.6-17.4c0.4-6.6,0.7-13.2,0.7-19.7v-232.3h-61.1v206.6c0,16-0.7,31.2-2.1,45.7c-1.4,14.4-4.4,25.9-8.9,34.6
			c-5,9.3-12.1,16.3-21.4,21c-9.3,4.7-22.8,7-40.3,7c-16.7,0-33.4-4.1-50.2-12.3c-16.8-8.2-33.5-18.7-50.2-31.5v-271h-61.1V5.9h61.1
			v-40.3c19.1,15.8,38.1,28.2,57,37c19,8.9,39.2,13.3,60.6,13.3c24.7,0,45.6-5.2,62.9-15.6c17.2-10.4,30.1-24.8,38.5-43.2
			c24.7,20.8,47.2,35.8,67.6,45c20.4,9.2,42.1,13.8,65.3,13.8c39.9,0,69.3-12.1,88.2-36.2c19-24.2,28.4-57.9,28.4-101.2
			L3709.7-357.1"/>
		<path id="path24" class="st0" d="M4094.4-357.1h-61.1v40.3c-20.6-16.2-40.3-28.7-59.1-37.4c-18.8-8.7-39.6-13-62.4-13
			c-38.1,0-67.8,11.6-89,34.9c-21.2,23.3-31.8,57.4-31.8,102.5V5.9h61.1v-206.6c0-18.4,0.9-34.2,2.6-47.3c1.7-13.1,5.4-24.3,11-33.6
			c5.8-9.5,13.4-16.5,22.7-20.8c9.3-4.3,22.8-6.5,40.6-6.5c15.8,0,33.1,4.1,51.8,12.3c18.7,8.2,36.2,18.7,52.5,31.5v271h61.1
			L4094.4-357.1"/>
		<path id="path26" class="st0" d="M4451.1-252.4c0-33.1-13.7-60.3-41.1-81.6c-27.4-21.2-64.8-31.8-112.3-31.8
			c-26.9,0-51.5,3.2-73.9,9.6c-22.4,6.4-41.2,13.4-56.4,21v68.6h3.3c19.3-14.5,40.7-26,64.3-34.6c23.6-8.6,46.2-12.8,67.9-12.8
			c26.9,0,47.9,4.3,63,13c15.2,8.7,22.7,22.3,22.7,40.9c0,14.3-4.1,25.1-12.3,32.5c-8.2,7.4-24,13.6-47.4,18.8
			c-8.7,1.9-20,4.2-33.9,6.8c-14,2.6-26.7,5.4-38.2,8.4c-31.8,8.5-54.4,20.8-67.7,37.2c-13.3,16.4-20,36.4-20,60.3
			c0,14.9,3.1,29,9.3,42.2c6.2,13.2,15.5,25,28.1,35.4c12.1,10.2,27.6,18.3,46.3,24.2c18.7,6,39.7,8.9,62.9,8.9
			c21.7,0,43.6-2.7,65.8-8c22.2-5.3,40.7-11.8,55.4-19.3V-78h-3.3c-15.6,11.5-34.5,21.2-56.9,29.1c-22.3,7.9-44.2,11.9-65.6,11.9
			c-22.3,0-41.2-4.3-56.5-12.8c-15.4-8.6-23.1-21.3-23.1-38.2c0-14.9,4.7-26.2,14-33.8c9.1-7.6,23.8-13.8,44.2-18.5
			c11.3-2.6,23.9-5.2,37.9-7.8c14-2.6,25.6-5,34.9-7.1c28.4-6.5,50.3-17.7,65.6-33.5C4443.4-204.8,4451.1-226,4451.1-252.4"/>
		<path id="path28" class="st0" d="M4962.8-171.2h-177.1v-177.1h-53.9v177.1h-177.1v52h177.1V57.8h53.9v-177.1h177.1V-171.2"/>
		<path id="path30" class="st0" d="M162.8-357.1h1451.4v967.6H162.8V-357.1L162.8-357.1z"/>
		<path id="path32" class="st1" d="M888.5,503l12-37.3l39.1,0.2L907.8,443l12.3-37.2l-31.6,23.2l-31.6-23.2l12.3,37.2l-31.8,22.9
			l39.2-0.2L888.5,503"/>
		<path id="path34" class="st1" d="M727.2,459.8l12-37.3l39.1,0.2l-31.8-22.9l12.3-37.2l-31.6,23.2l-31.6-23.2l12.3,37.2l-31.8,22.9
			l39.2-0.2L727.2,459.8"/>
		<path id="path36" class="st1" d="M609.2,341.7l11.9-37.3l39.1,0.2l-31.8-22.9l12.3-37.2l-31.6,23.2l-31.6-23.2l12.3,37.2
			L558,304.6l39.2-0.2L609.2,341.7"/>
		<path id="path38" class="st1" d="M566,180.5l11.9-37.3l39.1,0.2l-31.8-22.9l12.3-37.2L566,106.4l-31.6-23.2l12.3,37.2l-31.8,22.9
			l39.2-0.2L566,180.5"/>
		<path id="path40" class="st1" d="M609.2,19.2l11.9-37.3l39.1,0.2l-31.8-22.9L640.8-78l-31.6,23.2L577.6-78l12.3,37.2L558-18
			l39.2-0.2L609.2,19.2"/>
		<path id="path42" class="st1" d="M727.3-98.8l11.9-37.3l39.1,0.2l-31.8-22.9l12.3-37.2l-31.6,23.2l-31.6-23.2l12.3,37.2L676.1-136
			l39.2-0.2L727.3-98.8"/>
		<path id="path44" class="st1" d="M888.5-142l11.9-37.3l39.1,0.2l-31.8-22.9l12.3-37.2l-31.6,23.2l-31.6-23.2l12.3,37.2l-31.8,22.9
			l39.2-0.2L888.5-142"/>
		<path id="path46" class="st1" d="M1049.8-98.8l11.9-37.3l39.1,0.2l-31.8-22.9l12.3-37.2l-31.6,23.2l-31.6-23.2l12.3,37.2
			L998.6-136l39.2-0.2L1049.8-98.8"/>
		<path id="path48" class="st1" d="M1167.8,19.2l11.9-37.3l39.1,0.2l-31.8-22.9l12.3-37.2l-31.6,23.2L1136.2-78l12.3,37.2
			l-31.8,22.9l39.2-0.2L1167.8,19.2"/>
		<path id="path50" class="st1" d="M1211.1,180.5l11.9-37.3l39.1,0.2l-31.8-22.9l12.3-37.2l-31.6,23.2l-31.6-23.2l12.3,37.2
			l-31.8,22.9l39.2-0.2L1211.1,180.5"/>
		<path id="path52" class="st1" d="M1167.8,341.8l11.9-37.3l39.1,0.2l-31.8-22.9l12.3-37.2l-31.6,23.2l-31.6-23.2l12.3,37.2
			l-31.8,22.9l39.2-0.2L1167.8,341.8"/>
		<path id="path54" class="st1" d="M1049.8,459.8l11.9-37.3l39.1,0.2l-31.8-22.9l12.3-37.2l-31.6,23.2l-31.6-23.2l12.3,37.2
			l-31.8,22.9l39.2-0.2L1049.8,459.8"/>
	</g>
</g>
</svg>
